<svg width="92" height="24" viewBox="0 0 92 24" fill="none" xmlns="http://www.w3.org/2000/svg">
<path d="M77.0821 14.3813C77.3668 14.037 77.5419 13.6252 77.5799 13.2014C77.6025 12.9457 77.5739 12.701 77.4994 12.4764L80.7153 11.272L80.3775 10.3337L77.1011 11.8399C77.0225 11.7633 76.938 11.6933 76.8459 11.6347C76.1293 11.1784 75.1076 11.339 74.4166 12.0175C74.0323 12.3938 73.7971 12.8782 73.7526 13.3815C73.706 13.8994 73.8676 14.3758 74.2074 14.7225C74.2915 14.8081 74.385 14.8842 74.4861 14.9482C74.4861 14.9487 74.4861 14.9482 74.4861 14.9487C75.034 15.298 75.7601 15.285 76.3815 14.9567C76.4091 14.9877 76.4401 15.0183 76.4771 15.0418C76.6888 15.1774 76.97 15.1148 77.1051 14.9032C77.2107 14.7351 77.1951 14.5284 77.0821 14.3813ZM74.7793 14.4874C74.7133 14.4453 74.6517 14.3953 74.5972 14.3393C74.371 14.1086 74.2634 13.7848 74.295 13.4276C74.3275 13.0538 74.5066 12.691 74.7983 12.4048C75.3102 11.9024 76.0488 11.7713 76.5537 12.0936C76.6197 12.1351 76.6813 12.1861 76.7363 12.2412C76.9625 12.4724 77.0696 12.7961 77.038 13.1534C77.0055 13.5266 76.8264 13.8904 76.5352 14.1756C76.0213 14.6775 75.2837 14.8101 74.7793 14.4874Z" fill="#FCA311"/>
<path d="M78.8719 19.9505C78.9169 19.8379 78.6222 18.4714 79.1561 18.037C79.3738 17.9119 79.5739 17.7498 79.7461 17.5517C80.3055 16.9122 80.4511 16.04 80.1429 15.372L82.0328 11.3445L88.0388 4.60145L88.2549 4L88.2254 4.02552L87.63 4.37478L80.7848 10.043L81.1081 11.1879L79.4568 14.6385C79.1411 14.4674 78.7693 14.4043 78.381 14.4618C77.8817 14.5349 77.4118 14.7991 77.058 15.2034C76.4216 15.9324 76.3195 16.9627 76.8179 17.6512C76.8879 17.7473 76.9695 17.8364 77.059 17.9154C77.2627 18.0931 77.5039 18.2107 77.7656 18.2692C78.3755 18.654 78.29 19.5632 78.342 19.7593C78.3945 19.96 78.8244 20.0691 78.8719 19.9505ZM81.5614 10.5044C81.4523 10.3903 81.4558 10.2102 81.5694 10.1006C81.6835 9.99099 81.8636 9.995 81.9727 10.1081C82.0818 10.2222 82.0783 10.4023 81.9642 10.5119C81.8511 10.621 81.6705 10.6175 81.5614 10.5044ZM78.345 17.7543C77.9902 17.8064 77.6605 17.7188 77.4173 17.5066C77.3588 17.4546 77.3047 17.3955 77.2592 17.332C76.9089 16.8466 76.997 16.1026 77.4689 15.5622C77.7371 15.2549 78.0893 15.0548 78.4596 15.0002C78.8144 14.9482 79.1441 15.0363 79.3873 15.2484C79.4468 15.3005 79.4999 15.3595 79.5454 15.4226C79.8962 15.9084 79.8076 16.6525 79.3358 17.1934C79.0681 17.5001 78.7163 17.7003 78.345 17.7543Z" fill="#FCA311"/>
<path d="M10.572 7.48C10.724 7.48 10.84 7.528 10.92 7.624C11.008 7.712 11.052 7.832 11.052 7.984V15.556C11.052 15.708 11.008 15.832 10.92 15.928C10.84 16.016 10.724 16.06 10.572 16.06C10.42 16.06 10.3 16.016 10.212 15.928C10.124 15.832 10.08 15.708 10.08 15.556V12.124H5.016V15.556C5.016 15.708 4.972 15.832 4.884 15.928C4.796 16.016 4.676 16.06 4.524 16.06C4.372 16.06 4.252 16.016 4.164 15.928C4.084 15.832 4.044 15.708 4.044 15.556V7.984C4.044 7.832 4.084 7.712 4.164 7.624C4.252 7.528 4.372 7.48 4.524 7.48C4.676 7.48 4.796 7.528 4.884 7.624C4.972 7.712 5.016 7.832 5.016 7.984V11.284H10.08V7.984C10.08 7.832 10.124 7.712 10.212 7.624C10.3 7.528 10.42 7.48 10.572 7.48ZM21.6217 15.436C21.6537 15.5 21.6697 15.568 21.6697 15.64C21.6697 15.76 21.6218 15.86 21.5258 15.94C21.4378 16.02 21.3298 16.06 21.2018 16.06C21.0017 16.06 20.8617 15.964 20.7817 15.772L19.9298 13.828H15.4057L14.5417 15.772C14.4617 15.964 14.3217 16.06 14.1217 16.06C13.9937 16.06 13.8817 16.02 13.7857 15.94C13.6897 15.852 13.6417 15.748 13.6417 15.628C13.6417 15.564 13.6577 15.5 13.6897 15.436L17.1217 7.804C17.1697 7.692 17.2418 7.608 17.3377 7.552C17.4337 7.496 17.5377 7.468 17.6497 7.468C17.7697 7.468 17.8778 7.5 17.9737 7.564C18.0697 7.62 18.1417 7.7 18.1898 7.804L21.6217 15.436ZM15.7657 13.012H19.5697L17.6618 8.704L15.7657 13.012ZM24.7485 16.06C24.5965 16.06 24.4765 16.016 24.3885 15.928C24.3005 15.832 24.2565 15.708 24.2565 15.556V7.984C24.2565 7.832 24.3005 7.712 24.3885 7.624C24.4765 7.528 24.5965 7.48 24.7485 7.48C24.9005 7.48 25.0205 7.528 25.1085 7.624C25.1965 7.712 25.2405 7.832 25.2405 7.984V15.556C25.2405 15.708 25.1965 15.832 25.1085 15.928C25.0205 16.016 24.9005 16.06 24.7485 16.06ZM34.9828 15.388C35.0388 15.476 35.0668 15.568 35.0668 15.664C35.0668 15.784 35.0188 15.884 34.9228 15.964C34.8348 16.036 34.7308 16.072 34.6108 16.072C34.4268 16.072 34.2828 15.992 34.1788 15.832L32.5708 13.288C32.3628 12.96 32.1468 12.736 31.9228 12.616C31.6988 12.488 31.3948 12.424 31.0108 12.424H29.4988V15.556C29.4988 15.708 29.4548 15.832 29.3668 15.928C29.2788 16.016 29.1628 16.06 29.0188 16.06C28.8668 16.06 28.7468 16.016 28.6588 15.928C28.5708 15.832 28.5268 15.708 28.5268 15.556V8.02C28.5268 7.876 28.5708 7.76 28.6588 7.672C28.7548 7.584 28.8788 7.54 29.0308 7.54H32.0068C32.9268 7.54 33.6268 7.744 34.1068 8.152C34.5948 8.56 34.8388 9.16 34.8388 9.952C34.8388 10.624 34.6428 11.164 34.2508 11.572C33.8668 11.98 33.3148 12.228 32.5948 12.316C32.7948 12.38 32.9748 12.484 33.1348 12.628C33.2948 12.772 33.4548 12.972 33.6148 13.228L34.9828 15.388ZM31.9228 11.608C32.5788 11.608 33.0668 11.472 33.3868 11.2C33.7148 10.928 33.8788 10.516 33.8788 9.964C33.8788 9.42 33.7188 9.016 33.3988 8.752C33.0788 8.488 32.5868 8.356 31.9228 8.356H29.4988V11.608H31.9228Z" fill="#FCA311"/>
<path d="M45.4654 7.48C45.6174 7.48 45.7334 7.528 45.8134 7.624C45.9014 7.712 45.9454 7.832 45.9454 7.984V15.58C45.9454 15.724 45.9054 15.84 45.8254 15.928C45.7454 16.016 45.6334 16.06 45.4894 16.06C45.3454 16.06 45.2374 16.016 45.1654 15.928C45.0934 15.84 45.0574 15.724 45.0574 15.58V9.448L42.4534 14.44C42.3414 14.672 42.1774 14.788 41.9614 14.788C41.7534 14.788 41.5894 14.672 41.4694 14.44L38.8534 9.508V15.58C38.8534 15.724 38.8134 15.84 38.7334 15.928C38.6614 16.016 38.5534 16.06 38.4094 16.06C38.2654 16.06 38.1534 16.016 38.0734 15.928C37.9934 15.84 37.9534 15.724 37.9534 15.58V7.984C37.9534 7.832 37.9974 7.712 38.0854 7.624C38.1734 7.528 38.2934 7.48 38.4454 7.48C38.6454 7.48 38.8054 7.596 38.9254 7.828L41.9734 13.672L44.9854 7.828C45.0494 7.7 45.1174 7.612 45.1894 7.564C45.2694 7.508 45.3614 7.48 45.4654 7.48ZM49.7472 16C49.5952 16 49.4712 15.956 49.3752 15.868C49.2872 15.78 49.2432 15.664 49.2432 15.52V8.02C49.2432 7.876 49.2872 7.76 49.3752 7.672C49.4712 7.584 49.5952 7.54 49.7472 7.54H54.2352C54.3792 7.54 54.4912 7.576 54.5712 7.648C54.6512 7.72 54.6912 7.82 54.6912 7.948C54.6912 8.076 54.6512 8.176 54.5712 8.248C54.4912 8.32 54.3792 8.356 54.2352 8.356H50.2152V11.296H53.9952C54.1392 11.296 54.2512 11.332 54.3312 11.404C54.4112 11.476 54.4512 11.576 54.4512 11.704C54.4512 11.832 54.4112 11.932 54.3312 12.004C54.2512 12.076 54.1392 12.112 53.9952 12.112H50.2152V15.184H54.2352C54.3792 15.184 54.4912 15.22 54.5712 15.292C54.6512 15.356 54.6912 15.456 54.6912 15.592C54.6912 15.72 54.6512 15.82 54.5712 15.892C54.4912 15.964 54.3792 16 54.2352 16H49.7472ZM60.0104 16.096C59.4104 16.096 58.8344 16.008 58.2824 15.832C57.7384 15.648 57.3024 15.404 56.9744 15.1C56.8544 14.988 56.7944 14.848 56.7944 14.68C56.7944 14.568 56.8264 14.472 56.8904 14.392C56.9544 14.304 57.0304 14.26 57.1184 14.26C57.2224 14.26 57.3344 14.304 57.4544 14.392C58.1984 14.968 59.0464 15.256 59.9984 15.256C60.6864 15.256 61.2144 15.124 61.5824 14.86C61.9504 14.596 62.1344 14.22 62.1344 13.732C62.1344 13.452 62.0464 13.228 61.8704 13.06C61.6944 12.884 61.4624 12.744 61.1744 12.64C60.8864 12.536 60.4984 12.428 60.0104 12.316C59.3544 12.164 58.8144 12.004 58.3904 11.836C57.9744 11.668 57.6344 11.428 57.3704 11.116C57.1144 10.804 56.9864 10.396 56.9864 9.892C56.9864 9.412 57.1144 8.988 57.3704 8.62C57.6344 8.244 57.9984 7.956 58.4624 7.756C58.9344 7.548 59.4704 7.444 60.0704 7.444C60.6304 7.444 61.1504 7.532 61.6304 7.708C62.1184 7.876 62.5264 8.12 62.8544 8.44C62.9824 8.568 63.0464 8.708 63.0464 8.86C63.0464 8.972 63.0144 9.072 62.9504 9.16C62.8864 9.24 62.8104 9.28 62.7224 9.28C62.6344 9.28 62.5184 9.236 62.3744 9.148C61.9824 8.828 61.6184 8.604 61.2824 8.476C60.9464 8.348 60.5424 8.284 60.0704 8.284C59.4064 8.284 58.8904 8.424 58.5224 8.704C58.1544 8.976 57.9704 9.36 57.9704 9.856C57.9704 10.28 58.1304 10.6 58.4504 10.816C58.7784 11.024 59.2784 11.208 59.9504 11.368C60.6784 11.544 61.2504 11.708 61.6664 11.86C62.0824 12.004 62.4264 12.224 62.6984 12.52C62.9784 12.816 63.1184 13.212 63.1184 13.708C63.1184 14.18 62.9864 14.596 62.7224 14.956C62.4664 15.316 62.1024 15.596 61.6304 15.796C61.1584 15.996 60.6184 16.096 60.0104 16.096ZM68.6167 16.096C68.0167 16.096 67.4407 16.008 66.8887 15.832C66.3447 15.648 65.9087 15.404 65.5807 15.1C65.4607 14.988 65.4007 14.848 65.4007 14.68C65.4007 14.568 65.4327 14.472 65.4967 14.392C65.5607 14.304 65.6367 14.26 65.7247 14.26C65.8287 14.26 65.9407 14.304 66.0607 14.392C66.8047 14.968 67.6527 15.256 68.6047 15.256C69.2927 15.256 69.8207 15.124 70.1887 14.86C70.5567 14.596 70.7407 14.22 70.7407 13.732C70.7407 13.452 70.6527 13.228 70.4767 13.06C70.3007 12.884 70.0687 12.744 69.7807 12.64C69.4927 12.536 69.1047 12.428 68.6167 12.316C67.9607 12.164 67.4207 12.004 66.9967 11.836C66.5807 11.668 66.2407 11.428 65.9767 11.116C65.7207 10.804 65.5927 10.396 65.5927 9.892C65.5927 9.412 65.7207 8.988 65.9767 8.62C66.2407 8.244 66.6047 7.956 67.0687 7.756C67.5407 7.548 68.0767 7.444 68.6767 7.444C69.2367 7.444 69.7567 7.532 70.2367 7.708C70.7247 7.876 71.1327 8.12 71.4607 8.44C71.5887 8.568 71.6527 8.708 71.6527 8.86C71.6527 8.972 71.6207 9.072 71.5567 9.16C71.4927 9.24 71.4167 9.28 71.3287 9.28C71.2407 9.28 71.1247 9.236 70.9807 9.148C70.5887 8.828 70.2247 8.604 69.8887 8.476C69.5527 8.348 69.1487 8.284 68.6767 8.284C68.0127 8.284 67.4967 8.424 67.1287 8.704C66.7607 8.976 66.5767 9.36 66.5767 9.856C66.5767 10.28 66.7367 10.6 67.0567 10.816C67.3847 11.024 67.8847 11.208 68.5567 11.368C69.2847 11.544 69.8567 11.708 70.2727 11.86C70.6887 12.004 71.0327 12.224 71.3047 12.52C71.5847 12.816 71.7247 13.212 71.7247 13.708C71.7247 14.18 71.5927 14.596 71.3287 14.956C71.0727 15.316 70.7087 15.596 70.2367 15.796C69.7647 15.996 69.2247 16.096 68.6167 16.096Z" fill="#181818"/>
<rect x="0.25" y="0.25" width="91.5" height="23.5" rx="1.75" stroke="#FCA311" stroke-width="0.5"/>
</svg>
