<svg width="86" height="16" viewBox="0 0 86 16" fill="none" xmlns="http://www.w3.org/2000/svg">
<path d="M74.0821 10.3813C74.3668 10.037 74.5419 9.62522 74.5799 9.2014C74.6025 8.94571 74.5739 8.70103 74.4994 8.47636L77.7153 7.27195L77.3775 6.33375L74.1011 7.83988C74.0225 7.76332 73.938 7.69327 73.8459 7.63473C73.1293 7.17838 72.1076 7.339 71.4166 8.01751C71.0323 8.3938 70.7971 8.87816 70.7526 9.38154C70.706 9.89942 70.8676 10.3758 71.2074 10.7225C71.2915 10.8081 71.385 10.8842 71.4861 10.9482C71.4861 10.9487 71.4861 10.9482 71.4861 10.9487C72.034 11.298 72.7601 11.285 73.3815 10.9567C73.4091 10.9877 73.4401 11.0183 73.4771 11.0418C73.6888 11.1774 73.97 11.1148 74.1051 10.9032C74.2107 10.7351 74.1951 10.5284 74.0821 10.3813ZM71.7793 10.4874C71.7133 10.4453 71.6517 10.3953 71.5972 10.3393C71.371 10.1086 71.2634 9.78484 71.295 9.42757C71.3275 9.05379 71.5066 8.69102 71.7983 8.4048C72.3102 7.90243 73.0488 7.77133 73.5537 8.09357C73.6197 8.1351 73.6813 8.18614 73.7363 8.24118C73.9625 8.47235 74.0696 8.7961 74.038 9.15336C74.0055 9.52664 73.8264 9.89042 73.5352 10.1756C73.0213 10.6775 72.2837 10.8101 71.7793 10.4874Z" fill="#FCA311"/>
<path d="M75.8719 15.9505C75.9169 15.8379 75.6222 14.4714 76.1561 14.037C76.3738 13.9119 76.5739 13.7498 76.7461 13.5517C77.3055 12.9122 77.4511 12.04 77.1429 11.372L79.0328 7.34451L85.0388 0.601451L85.2549 0L85.2254 0.0255191L84.63 0.374781L77.7848 6.04303L78.1081 7.18789L76.4568 10.6385C76.1411 10.4674 75.7693 10.4043 75.381 10.4618C74.8817 10.5349 74.4118 10.7991 74.058 11.2034C73.4216 11.9324 73.3195 12.9627 73.8179 13.6512C73.8879 13.7473 73.9695 13.8364 74.059 13.9154C74.2627 14.0931 74.5039 14.2107 74.7656 14.2692C75.3755 14.654 75.29 15.5632 75.342 15.7593C75.3945 15.96 75.8244 16.0691 75.8719 15.9505ZM78.5614 6.50438C78.4523 6.39029 78.4558 6.21016 78.5694 6.10058C78.6835 5.99099 78.8636 5.995 78.9727 6.10808C79.0818 6.22217 79.0783 6.4023 78.9642 6.51188C78.8511 6.62097 78.6705 6.61746 78.5614 6.50438ZM75.345 13.7543C74.9902 13.8064 74.6605 13.7188 74.4173 13.5066C74.3588 13.4546 74.3047 13.3955 74.2592 13.332C73.9089 12.8466 73.997 12.1026 74.4689 11.5622C74.7371 11.2549 75.0893 11.0548 75.4596 11.0002C75.8144 10.9482 76.1441 11.0363 76.3873 11.2484C76.4468 11.3005 76.4999 11.3595 76.5454 11.4226C76.8962 11.9084 76.8076 12.6525 76.3358 13.1934C76.0681 13.5001 75.7163 13.7003 75.345 13.7543Z" fill="#FCA311"/>
<path d="M7.572 3.48C7.724 3.48 7.84 3.528 7.92 3.624C8.008 3.712 8.052 3.832 8.052 3.984V11.556C8.052 11.708 8.008 11.832 7.92 11.928C7.84 12.016 7.724 12.06 7.572 12.06C7.42 12.06 7.3 12.016 7.212 11.928C7.124 11.832 7.08 11.708 7.08 11.556V8.124H2.016V11.556C2.016 11.708 1.972 11.832 1.884 11.928C1.796 12.016 1.676 12.06 1.524 12.06C1.372 12.06 1.252 12.016 1.164 11.928C1.084 11.832 1.044 11.708 1.044 11.556V3.984C1.044 3.832 1.084 3.712 1.164 3.624C1.252 3.528 1.372 3.48 1.524 3.48C1.676 3.48 1.796 3.528 1.884 3.624C1.972 3.712 2.016 3.832 2.016 3.984V7.284H7.08V3.984C7.08 3.832 7.124 3.712 7.212 3.624C7.3 3.528 7.42 3.48 7.572 3.48ZM18.6217 11.436C18.6537 11.5 18.6697 11.568 18.6697 11.64C18.6697 11.76 18.6218 11.86 18.5258 11.94C18.4378 12.02 18.3298 12.06 18.2018 12.06C18.0017 12.06 17.8617 11.964 17.7817 11.772L16.9298 9.828H12.4057L11.5417 11.772C11.4617 11.964 11.3217 12.06 11.1217 12.06C10.9937 12.06 10.8817 12.02 10.7857 11.94C10.6897 11.852 10.6417 11.748 10.6417 11.628C10.6417 11.564 10.6577 11.5 10.6897 11.436L14.1217 3.804C14.1697 3.692 14.2418 3.608 14.3377 3.552C14.4337 3.496 14.5377 3.468 14.6497 3.468C14.7697 3.468 14.8778 3.5 14.9737 3.564C15.0697 3.62 15.1417 3.7 15.1898 3.804L18.6217 11.436ZM12.7657 9.012H16.5697L14.6618 4.704L12.7657 9.012ZM21.7485 12.06C21.5965 12.06 21.4765 12.016 21.3885 11.928C21.3005 11.832 21.2565 11.708 21.2565 11.556V3.984C21.2565 3.832 21.3005 3.712 21.3885 3.624C21.4765 3.528 21.5965 3.48 21.7485 3.48C21.9005 3.48 22.0205 3.528 22.1085 3.624C22.1965 3.712 22.2405 3.832 22.2405 3.984V11.556C22.2405 11.708 22.1965 11.832 22.1085 11.928C22.0205 12.016 21.9005 12.06 21.7485 12.06ZM31.9828 11.388C32.0388 11.476 32.0668 11.568 32.0668 11.664C32.0668 11.784 32.0188 11.884 31.9228 11.964C31.8348 12.036 31.7308 12.072 31.6108 12.072C31.4268 12.072 31.2828 11.992 31.1788 11.832L29.5708 9.288C29.3628 8.96 29.1468 8.736 28.9228 8.616C28.6988 8.488 28.3948 8.424 28.0108 8.424H26.4988V11.556C26.4988 11.708 26.4548 11.832 26.3668 11.928C26.2788 12.016 26.1628 12.06 26.0188 12.06C25.8668 12.06 25.7468 12.016 25.6588 11.928C25.5708 11.832 25.5268 11.708 25.5268 11.556V4.02C25.5268 3.876 25.5708 3.76 25.6588 3.672C25.7548 3.584 25.8788 3.54 26.0308 3.54H29.0068C29.9268 3.54 30.6268 3.744 31.1068 4.152C31.5948 4.56 31.8388 5.16 31.8388 5.952C31.8388 6.624 31.6428 7.164 31.2508 7.572C30.8668 7.98 30.3148 8.228 29.5948 8.316C29.7948 8.38 29.9748 8.484 30.1348 8.628C30.2948 8.772 30.4548 8.972 30.6148 9.228L31.9828 11.388ZM28.9228 7.608C29.5788 7.608 30.0668 7.472 30.3868 7.2C30.7148 6.928 30.8788 6.516 30.8788 5.964C30.8788 5.42 30.7188 5.016 30.3988 4.752C30.0788 4.488 29.5868 4.356 28.9228 4.356H26.4988V7.608H28.9228Z" fill="#FCA311"/>
<path d="M42.4654 3.48C42.6174 3.48 42.7334 3.528 42.8134 3.624C42.9014 3.712 42.9454 3.832 42.9454 3.984V11.58C42.9454 11.724 42.9054 11.84 42.8254 11.928C42.7454 12.016 42.6334 12.06 42.4894 12.06C42.3454 12.06 42.2374 12.016 42.1654 11.928C42.0934 11.84 42.0574 11.724 42.0574 11.58V5.448L39.4534 10.44C39.3414 10.672 39.1774 10.788 38.9614 10.788C38.7534 10.788 38.5894 10.672 38.4694 10.44L35.8534 5.508V11.58C35.8534 11.724 35.8134 11.84 35.7334 11.928C35.6614 12.016 35.5534 12.06 35.4094 12.06C35.2654 12.06 35.1534 12.016 35.0734 11.928C34.9934 11.84 34.9534 11.724 34.9534 11.58V3.984C34.9534 3.832 34.9974 3.712 35.0854 3.624C35.1734 3.528 35.2934 3.48 35.4454 3.48C35.6454 3.48 35.8054 3.596 35.9254 3.828L38.9734 9.672L41.9854 3.828C42.0494 3.7 42.1174 3.612 42.1894 3.564C42.2694 3.508 42.3614 3.48 42.4654 3.48ZM46.7472 12C46.5952 12 46.4712 11.956 46.3752 11.868C46.2872 11.78 46.2432 11.664 46.2432 11.52V4.02C46.2432 3.876 46.2872 3.76 46.3752 3.672C46.4712 3.584 46.5952 3.54 46.7472 3.54H51.2352C51.3792 3.54 51.4912 3.576 51.5712 3.648C51.6512 3.72 51.6912 3.82 51.6912 3.948C51.6912 4.076 51.6512 4.176 51.5712 4.248C51.4912 4.32 51.3792 4.356 51.2352 4.356H47.2152V7.296H50.9952C51.1392 7.296 51.2512 7.332 51.3312 7.404C51.4112 7.476 51.4512 7.576 51.4512 7.704C51.4512 7.832 51.4112 7.932 51.3312 8.004C51.2512 8.076 51.1392 8.112 50.9952 8.112H47.2152V11.184H51.2352C51.3792 11.184 51.4912 11.22 51.5712 11.292C51.6512 11.356 51.6912 11.456 51.6912 11.592C51.6912 11.72 51.6512 11.82 51.5712 11.892C51.4912 11.964 51.3792 12 51.2352 12H46.7472ZM57.0104 12.096C56.4104 12.096 55.8344 12.008 55.2824 11.832C54.7384 11.648 54.3024 11.404 53.9744 11.1C53.8544 10.988 53.7944 10.848 53.7944 10.68C53.7944 10.568 53.8264 10.472 53.8904 10.392C53.9544 10.304 54.0304 10.26 54.1184 10.26C54.2224 10.26 54.3344 10.304 54.4544 10.392C55.1984 10.968 56.0464 11.256 56.9984 11.256C57.6864 11.256 58.2144 11.124 58.5824 10.86C58.9504 10.596 59.1344 10.22 59.1344 9.732C59.1344 9.452 59.0464 9.228 58.8704 9.06C58.6944 8.884 58.4624 8.744 58.1744 8.64C57.8864 8.536 57.4984 8.428 57.0104 8.316C56.3544 8.164 55.8144 8.004 55.3904 7.836C54.9744 7.668 54.6344 7.428 54.3704 7.116C54.1144 6.804 53.9864 6.396 53.9864 5.892C53.9864 5.412 54.1144 4.988 54.3704 4.62C54.6344 4.244 54.9984 3.956 55.4624 3.756C55.9344 3.548 56.4704 3.444 57.0704 3.444C57.6304 3.444 58.1504 3.532 58.6304 3.708C59.1184 3.876 59.5264 4.12 59.8544 4.44C59.9824 4.568 60.0464 4.708 60.0464 4.86C60.0464 4.972 60.0144 5.072 59.9504 5.16C59.8864 5.24 59.8104 5.28 59.7224 5.28C59.6344 5.28 59.5184 5.236 59.3744 5.148C58.9824 4.828 58.6184 4.604 58.2824 4.476C57.9464 4.348 57.5424 4.284 57.0704 4.284C56.4064 4.284 55.8904 4.424 55.5224 4.704C55.1544 4.976 54.9704 5.36 54.9704 5.856C54.9704 6.28 55.1304 6.6 55.4504 6.816C55.7784 7.024 56.2784 7.208 56.9504 7.368C57.6784 7.544 58.2504 7.708 58.6664 7.86C59.0824 8.004 59.4264 8.224 59.6984 8.52C59.9784 8.816 60.1184 9.212 60.1184 9.708C60.1184 10.18 59.9864 10.596 59.7224 10.956C59.4664 11.316 59.1024 11.596 58.6304 11.796C58.1584 11.996 57.6184 12.096 57.0104 12.096ZM65.6167 12.096C65.0167 12.096 64.4407 12.008 63.8887 11.832C63.3447 11.648 62.9087 11.404 62.5807 11.1C62.4607 10.988 62.4007 10.848 62.4007 10.68C62.4007 10.568 62.4327 10.472 62.4967 10.392C62.5607 10.304 62.6367 10.26 62.7247 10.26C62.8287 10.26 62.9407 10.304 63.0607 10.392C63.8047 10.968 64.6527 11.256 65.6047 11.256C66.2927 11.256 66.8207 11.124 67.1887 10.86C67.5567 10.596 67.7407 10.22 67.7407 9.732C67.7407 9.452 67.6527 9.228 67.4767 9.06C67.3007 8.884 67.0687 8.744 66.7807 8.64C66.4927 8.536 66.1047 8.428 65.6167 8.316C64.9607 8.164 64.4207 8.004 63.9967 7.836C63.5807 7.668 63.2407 7.428 62.9767 7.116C62.7207 6.804 62.5927 6.396 62.5927 5.892C62.5927 5.412 62.7207 4.988 62.9767 4.62C63.2407 4.244 63.6047 3.956 64.0687 3.756C64.5407 3.548 65.0767 3.444 65.6767 3.444C66.2367 3.444 66.7567 3.532 67.2367 3.708C67.7247 3.876 68.1327 4.12 68.4607 4.44C68.5887 4.568 68.6527 4.708 68.6527 4.86C68.6527 4.972 68.6207 5.072 68.5567 5.16C68.4927 5.24 68.4167 5.28 68.3287 5.28C68.2407 5.28 68.1247 5.236 67.9807 5.148C67.5887 4.828 67.2247 4.604 66.8887 4.476C66.5527 4.348 66.1487 4.284 65.6767 4.284C65.0127 4.284 64.4967 4.424 64.1287 4.704C63.7607 4.976 63.5767 5.36 63.5767 5.856C63.5767 6.28 63.7367 6.6 64.0567 6.816C64.3847 7.024 64.8847 7.208 65.5567 7.368C66.2847 7.544 66.8567 7.708 67.2727 7.86C67.6887 8.004 68.0327 8.224 68.3047 8.52C68.5847 8.816 68.7247 9.212 68.7247 9.708C68.7247 10.18 68.5927 10.596 68.3287 10.956C68.0727 11.316 67.7087 11.596 67.2367 11.796C66.7647 11.996 66.2247 12.096 65.6167 12.096Z" fill="#181818"/>
</svg>
